<svg xmlns="http://www.w3.org/2000/svg" viewBox="0 0 183.45 67.8"><defs><style>.cls-1{fill:#00addc;}.cls-2{fill:#f15a22;}</style></defs><title>Asset 2</title><g id="Layer_2" data-name="Layer 2"><g id="Layer_1-2" data-name="Layer 1"><path d="M183.7,38.95V68H116.05V.25H183.7v29.1H145v9.6ZM174.1,58.3V48.7H135.4V19.6h38.7V9.85H125.65V58.3Z" transform="translate(-0.25 -0.25)"/><polygon class="cls-1" points="173.85 48.45 173.85 58.05 125.4 58.05 125.4 9.6 173.85 9.6 173.85 19.35 135.15 19.35 135.15 48.45 173.85 48.45"/><path d="M106.45,38.95V68H77.5V38.95ZM96.85,58.3V48.7H87.1v9.6Z" transform="translate(-0.25 -0.25)"/><path d="M67.9,47.5V68H47.35L34,54.7,20.65,68H.25V47.5L13.6,34.15.25,20.8V.25h20.4L34,13.6,47.35.25H67.9V20.8L54.55,34.15ZM58.3,58.3V51.4L40.9,34.15l17.4-17.4V9.85H51.4L34,27.25,16.75,9.85H9.85v6.9l17.4,17.4L9.85,51.4v6.9h6.9L34,40.9,51.4,58.3Z" transform="translate(-0.25 -0.25)"/><polygon class="cls-2" points="58.05 51.15 58.05 58.05 51.15 58.05 33.75 40.65 16.5 58.05 9.6 58.05 9.6 51.15 27 33.9 9.6 16.5 9.6 9.6 16.5 9.6 33.75 27 51.15 9.6 58.05 9.6 58.05 16.5 40.65 33.9 58.05 51.15"/></g></g></svg>