<svg xmlns="http://www.w3.org/2000/svg" viewBox="0 0 840.8 107"><defs><style>.cls-1{fill:#00addc;}.cls-2{fill:#fff;}.cls-3{fill:#f15a22;}.cls-4{fill:none;stroke:#000;stroke-linecap:round;stroke-linejoin:round;stroke-width:0.5px;}</style></defs><title>Asset 1</title><g id="Layer_2" data-name="Layer 2"><g id="Layer_1-2" data-name="Layer 1"><path d="M686.05,19.6V87.4H618.4V19.6Zm-9.6,58.05v-9.6h-38.7V58.3h38.7V29.2H628V77.65Z"/><polygon class="cls-1" points="174.1 68.05 174.1 77.65 125.65 77.65 125.65 29.2 174.1 29.2 174.1 38.95 135.4 38.95 135.4 68.05 174.1 68.05"/><path d="M531.55,19.6V87.4H463.9V19.6ZM522,77.65V29.2H473.5V77.65Z"/><rect class="cls-2" x="87.1" y="68.05" width="9.75" height="9.6"/><path d="M608.8,19.6V87.4H579.85V48.7H570.1V87.4h-29V19.6Zm-9.6,58.05V29.2H550.75V77.65h9.75V39h29v38.7Z"/><rect x="637.75" y="38.95" width="28.95" height="9.75"/><path d="M106.45,58.3V87.4H77.5V58.3Zm-9.6,19.35v-9.6H87.1v9.6Z"/><path class="cls-1" d="M522,29.2V77.65H473.5V29.2ZM512.2,68.05V39h-29v29.1Z"/><polygon class="cls-1" points="599.2 29.2 599.2 77.65 589.45 77.65 589.45 38.95 560.5 38.95 560.5 77.65 550.75 77.65 550.75 29.2 599.2 29.2"/><polygon class="cls-1" points="753.7 29.2 753.7 77.65 743.95 77.65 743.95 38.95 715 38.95 715 77.65 705.25 77.65 705.25 29.2 753.7 29.2"/><path class="cls-1" d="M444.7,29.2V77.65H406V97h-9.75V29.2ZM435,68.05V39H406v29.1Z"/><path d="M261,19.6V87.4H193.3V19.6Zm-9.6,58.05V29.2H202.9V77.65Z"/><path d="M183.7,58.3V87.4H116.05V19.6H183.7V48.7H145v9.6Zm-9.6,19.35v-9.6H135.4V39h38.7V29.2H125.65V77.65Z"/><path d="M241.6,39v29.1H212.65V39ZM232,58.3V48.7h-9.75v9.6Z"/><polygon class="cls-3" points="58.3 70.75 58.3 77.65 51.4 77.65 34 60.25 16.75 77.65 9.85 77.65 9.85 70.75 27.25 53.5 9.85 36.1 9.85 29.2 16.75 29.2 34 46.6 51.4 29.2 58.3 29.2 58.3 36.1 40.9 53.5 58.3 70.75"/><path d="M454.3,19.6V87.4H415.6v19.35h-29V19.6Zm-9.6,58.05V29.2H396.25V97H406V77.65Z"/><polygon class="cls-1" points="367.45 29.2 367.45 77.65 357.7 77.65 357.7 38.95 328.75 38.95 328.75 77.65 319 77.65 319 38.95 290.05 38.95 290.05 77.65 280.3 77.65 280.3 29.2 367.45 29.2"/><polygon class="cls-1" points="830.95 29.2 830.95 38.95 811.6 38.95 811.6 77.65 801.85 77.65 801.85 38.95 782.5 38.95 782.5 29.2 801.85 29.2 801.85 9.85 811.6 9.85 811.6 29.2 830.95 29.2"/><path class="cls-1" d="M251.35,29.2V77.65H202.9V29.2ZM241.6,68.05V39H212.65v29.1Z"/><path d="M763.3,19.6V87.4H734.35V48.7H724.6V87.4h-29V19.6Zm-9.6,58.05V29.2H705.25V77.65H715V39h29v38.7Z"/><path d="M512.2,39v29.1h-29V39ZM502.6,58.3V48.7h-9.75v9.6Z"/><path d="M377.05,19.6V87.4H348.1V48.7h-9.75V87.4h-29V48.7h-9.75V87.4h-29.1V19.6Zm-9.6,58.05V29.2H280.3V77.65h9.75V39H319v38.7h9.75V39H357.7v38.7Z"/><path d="M67.9,66.85V87.4H47.35L34,74.05,20.65,87.4H.25V66.85L13.6,53.5.25,40.15V19.6h20.4L34,33,47.35,19.6H67.9V40.15L54.55,53.5Zm-9.6,10.8v-6.9L40.9,53.5,58.3,36.1V29.2H51.4L34,46.6,16.75,29.2H9.85v6.9l17.4,17.4L9.85,70.75v6.9h6.9L34,60.25l17.4,17.4Z"/><path d="M435,39v29.1H406V39Zm-9.6,19.35V48.7H415.6v9.6Z"/><path class="cls-1" d="M676.45,68.05v9.6H628V29.2h48.45V58.3h-38.7v9.75ZM666.7,48.7V39h-29V48.7Z"/><path d="M840.55,19.6V48.7H821.2V87.4h-29V48.7H772.9V19.6h19.35V.25h29V19.6ZM831,39V29.2H811.6V9.85h-9.75V29.2H782.5V39h19.35v38.7h9.75V39Z"/><polygon class="cls-4" points="54.55 53.5 67.9 66.85 67.9 87.4 47.35 87.4 34 74.05 20.65 87.4 0.25 87.4 0.25 66.85 13.6 53.5 0.25 40.15 0.25 19.6 20.65 19.6 34 32.95 47.35 19.6 67.9 19.6 67.9 40.15 54.55 53.5"/><polygon class="cls-4" points="51.4 29.2 34 46.6 16.75 29.2 9.85 29.2 9.85 36.1 27.25 53.5 9.85 70.75 9.85 77.65 16.75 77.65 34 60.25 51.4 77.65 58.3 77.65 58.3 70.75 40.9 53.5 58.3 36.1 58.3 29.2 51.4 29.2"/><rect class="cls-4" x="77.5" y="58.3" width="28.95" height="29.1"/><rect class="cls-4" x="87.1" y="68.05" width="9.75" height="9.6"/><polygon class="cls-4" points="145 58.3 183.7 58.3 183.7 87.4 116.05 87.4 116.05 19.6 183.7 19.6 183.7 48.7 145 48.7 145 58.3"/><polygon class="cls-4" points="135.4 38.95 174.1 38.95 174.1 29.2 125.65 29.2 125.65 77.65 174.1 77.65 174.1 68.05 135.4 68.05 135.4 38.95"/><rect class="cls-4" x="193.3" y="19.6" width="67.65" height="67.8"/><rect class="cls-4" x="202.9" y="29.2" width="48.45" height="48.45"/><rect class="cls-4" x="212.65" y="38.95" width="28.95" height="29.1"/><rect class="cls-4" x="222.25" y="48.7" width="9.75" height="9.6"/><polygon class="cls-4" points="377.05 87.4 348.1 87.4 348.1 48.7 338.35 48.7 338.35 87.4 309.4 87.4 309.4 48.7 299.65 48.7 299.65 87.4 270.55 87.4 270.55 19.6 377.05 19.6 377.05 87.4"/><polygon class="cls-4" points="280.3 29.2 280.3 77.65 290.05 77.65 290.05 38.95 319 38.95 319 77.65 328.75 77.65 328.75 38.95 357.7 38.95 357.7 77.65 367.45 77.65 367.45 29.2 280.3 29.2"/><polygon class="cls-4" points="454.3 87.4 415.6 87.4 415.6 106.75 386.65 106.75 386.65 19.6 454.3 19.6 454.3 87.4"/><polygon class="cls-4" points="396.25 29.2 396.25 97 406 97 406 77.65 444.7 77.65 444.7 29.2 396.25 29.2"/><rect class="cls-4" x="406" y="38.95" width="28.95" height="29.1"/><rect class="cls-4" x="415.6" y="48.7" width="9.75" height="9.6"/><rect class="cls-4" x="463.9" y="19.6" width="67.65" height="67.8"/><rect class="cls-4" x="473.5" y="29.2" width="48.45" height="48.45"/><rect class="cls-4" x="483.25" y="38.95" width="28.95" height="29.1"/><rect class="cls-4" x="492.85" y="48.7" width="9.75" height="9.6"/><polygon class="cls-4" points="608.8 87.4 579.85 87.4 579.85 48.7 570.1 48.7 570.1 87.4 541.15 87.4 541.15 19.6 608.8 19.6 608.8 87.4"/><polygon class="cls-4" points="550.75 29.2 550.75 77.65 560.5 77.65 560.5 38.95 589.45 38.95 589.45 77.65 599.2 77.65 599.2 29.2 550.75 29.2"/><rect class="cls-4" x="618.4" y="19.6" width="67.65" height="67.8"/><polygon class="cls-4" points="628 29.2 628 77.65 676.45 77.65 676.45 68.05 637.75 68.05 637.75 58.3 676.45 58.3 676.45 29.2 628 29.2"/><rect class="cls-4" x="637.75" y="38.95" width="28.95" height="9.75"/><polygon class="cls-4" points="763.3 87.4 734.35 87.4 734.35 48.7 724.6 48.7 724.6 87.4 695.65 87.4 695.65 19.6 763.3 19.6 763.3 87.4"/><polygon class="cls-4" points="705.25 29.2 705.25 77.65 715 77.65 715 38.95 743.95 38.95 743.95 77.65 753.7 77.65 753.7 29.2 705.25 29.2"/><polygon class="cls-4" points="840.55 48.7 821.2 48.7 821.2 87.4 792.25 87.4 792.25 48.7 772.9 48.7 772.9 19.6 792.25 19.6 792.25 0.25 821.2 0.25 821.2 19.6 840.55 19.6 840.55 48.7"/><polygon class="cls-4" points="811.6 29.2 811.6 9.85 801.85 9.85 801.85 29.2 782.5 29.2 782.5 38.95 801.85 38.95 801.85 77.65 811.6 77.65 811.6 38.95 830.95 38.95 830.95 29.2 811.6 29.2"/></g></g></svg>